<mxfile host="app.diagrams.net" agent="Mozilla/5.0 (Windows NT 10.0; Win64; x64) AppleWebKit/537.36 (KHTML, like Gecko) Chrome/134.0.0.0 Whale/4.31.304.16 Safari/537.36" version="26.2.14">
  <diagram id="Ht1M8jgEwFfnCIfOTk4-" name="Page-1">
    <mxGraphModel dx="1259" dy="786" grid="1" gridSize="10" guides="1" tooltips="1" connect="1" arrows="1" fold="1" page="1" pageScale="1" pageWidth="3200" pageHeight="1800" math="0" shadow="0">
      <root>
        <mxCell id="0" />
        <mxCell id="1" parent="0" />
        <mxCell id="SAVALBZILOmcg_LePT_4-65" value="Public subnet" style="points=[[0,0],[0.25,0],[0.5,0],[0.75,0],[1,0],[1,0.25],[1,0.5],[1,0.75],[1,1],[0.75,1],[0.5,1],[0.25,1],[0,1],[0,0.75],[0,0.5],[0,0.25]];outlineConnect=0;gradientColor=none;html=1;whiteSpace=wrap;fontSize=12;fontStyle=0;container=1;pointerEvents=0;collapsible=0;recursiveResize=0;shape=mxgraph.aws4.group;grIcon=mxgraph.aws4.group_security_group;grStroke=0;strokeColor=#7AA116;fillColor=#F2F6E8;verticalAlign=top;align=left;spacingLeft=30;fontColor=#248814;dashed=0;" vertex="1" parent="1">
          <mxGeometry x="1355" y="581" width="130" height="130" as="geometry" />
        </mxCell>
        <mxCell id="SAVALBZILOmcg_LePT_4-32" value="Private subnet" style="points=[[0,0],[0.25,0],[0.5,0],[0.75,0],[1,0],[1,0.25],[1,0.5],[1,0.75],[1,1],[0.75,1],[0.5,1],[0.25,1],[0,1],[0,0.75],[0,0.5],[0,0.25]];outlineConnect=0;gradientColor=none;html=1;whiteSpace=wrap;fontSize=12;fontStyle=0;container=1;pointerEvents=0;collapsible=0;recursiveResize=0;shape=mxgraph.aws4.group;grIcon=mxgraph.aws4.group_security_group;grStroke=0;strokeColor=#00A4A6;fillColor=#E6F6F7;verticalAlign=top;align=left;spacingLeft=30;fontColor=#147EBA;dashed=0;" vertex="1" parent="1">
          <mxGeometry x="1290" y="1172.25" width="259.75" height="147.75" as="geometry" />
        </mxCell>
        <mxCell id="SAVALBZILOmcg_LePT_4-67" value="" style="sketch=0;outlineConnect=0;fontColor=#232F3E;gradientColor=none;fillColor=#C925D1;strokeColor=none;dashed=0;verticalLabelPosition=bottom;verticalAlign=top;align=center;html=1;fontSize=12;fontStyle=0;aspect=fixed;pointerEvents=1;shape=mxgraph.aws4.rds_multi_az;" vertex="1" parent="SAVALBZILOmcg_LePT_4-32">
          <mxGeometry x="2" y="77.75" width="78" height="58" as="geometry" />
        </mxCell>
        <mxCell id="SAVALBZILOmcg_LePT_4-5" value="" style="sketch=0;outlineConnect=0;fontColor=#232F3E;gradientColor=none;fillColor=#232F3D;strokeColor=none;dashed=0;verticalLabelPosition=bottom;verticalAlign=top;align=center;html=1;fontSize=12;fontStyle=0;aspect=fixed;pointerEvents=1;shape=mxgraph.aws4.client;" vertex="1" parent="1">
          <mxGeometry x="1381" y="490" width="78" height="76" as="geometry" />
        </mxCell>
        <mxCell id="SAVALBZILOmcg_LePT_4-6" value="" style="edgeStyle=orthogonalEdgeStyle;html=1;endArrow=block;elbow=vertical;startArrow=none;endFill=1;strokeColor=#545B64;rounded=0;" edge="1" parent="1" target="SAVALBZILOmcg_LePT_4-5">
          <mxGeometry width="100" relative="1" as="geometry">
            <mxPoint x="1420" y="450" as="sourcePoint" />
            <mxPoint x="1420" y="490" as="targetPoint" />
          </mxGeometry>
        </mxCell>
        <mxCell id="SAVALBZILOmcg_LePT_4-8" value="" style="edgeStyle=orthogonalEdgeStyle;html=1;endArrow=block;elbow=vertical;startArrow=none;endFill=1;strokeColor=#545B64;rounded=0;" edge="1" parent="1">
          <mxGeometry width="100" relative="1" as="geometry">
            <mxPoint x="1419" y="570" as="sourcePoint" />
            <mxPoint x="1419" y="610" as="targetPoint" />
          </mxGeometry>
        </mxCell>
        <mxCell id="SAVALBZILOmcg_LePT_4-20" style="edgeStyle=orthogonalEdgeStyle;rounded=0;orthogonalLoop=1;jettySize=auto;html=1;exitX=0.5;exitY=1;exitDx=0;exitDy=0;exitPerimeter=0;" edge="1" parent="1" source="SAVALBZILOmcg_LePT_4-10" target="SAVALBZILOmcg_LePT_4-16">
          <mxGeometry relative="1" as="geometry" />
        </mxCell>
        <mxCell id="SAVALBZILOmcg_LePT_4-24" style="edgeStyle=orthogonalEdgeStyle;rounded=0;orthogonalLoop=1;jettySize=auto;html=1;exitX=0.5;exitY=1;exitDx=0;exitDy=0;exitPerimeter=0;" edge="1" parent="1" source="SAVALBZILOmcg_LePT_4-10" target="SAVALBZILOmcg_LePT_4-21">
          <mxGeometry relative="1" as="geometry">
            <Array as="points">
              <mxPoint x="1421" y="730" />
              <mxPoint x="1760" y="730" />
            </Array>
          </mxGeometry>
        </mxCell>
        <mxCell id="SAVALBZILOmcg_LePT_4-10" value="" style="outlineConnect=0;dashed=0;verticalLabelPosition=bottom;verticalAlign=top;align=center;html=1;shape=mxgraph.aws3.application_load_balancer;fillColor=#F58534;gradientColor=none;" vertex="1" parent="1">
          <mxGeometry x="1386" y="610" width="69" height="72" as="geometry" />
        </mxCell>
        <mxCell id="SAVALBZILOmcg_LePT_4-13" value="users" style="sketch=0;outlineConnect=0;gradientColor=none;fontColor=#545B64;strokeColor=none;fillColor=#879196;dashed=0;verticalLabelPosition=bottom;verticalAlign=top;align=center;html=1;fontSize=12;fontStyle=0;aspect=fixed;shape=mxgraph.aws4.illustration_users;pointerEvents=1" vertex="1" parent="1">
          <mxGeometry x="1370" y="330" width="100" height="100" as="geometry" />
        </mxCell>
        <mxCell id="SAVALBZILOmcg_LePT_4-14" value="" style="endArrow=classic;startArrow=classic;html=1;rounded=0;entryX=0.5;entryY=1;entryDx=0;entryDy=0;entryPerimeter=0;exitX=0.5;exitY=0;exitDx=0;exitDy=0;" edge="1" parent="1" source="SAVALBZILOmcg_LePT_4-66" target="SAVALBZILOmcg_LePT_4-10">
          <mxGeometry width="50" height="50" relative="1" as="geometry">
            <mxPoint x="1100" y="770" as="sourcePoint" />
            <mxPoint x="1420" y="720" as="targetPoint" />
            <Array as="points">
              <mxPoint x="1100" y="730" />
              <mxPoint x="1421" y="730" />
            </Array>
          </mxGeometry>
        </mxCell>
        <mxCell id="SAVALBZILOmcg_LePT_4-31" style="edgeStyle=orthogonalEdgeStyle;rounded=0;orthogonalLoop=1;jettySize=auto;html=1;exitX=0.5;exitY=1;exitDx=0;exitDy=0;entryX=0.5;entryY=0;entryDx=0;entryDy=0;" edge="1" parent="1" source="SAVALBZILOmcg_LePT_4-16" target="SAVALBZILOmcg_LePT_4-32">
          <mxGeometry relative="1" as="geometry">
            <mxPoint x="1420" y="1160" as="targetPoint" />
          </mxGeometry>
        </mxCell>
        <mxCell id="SAVALBZILOmcg_LePT_4-16" value="API SERVER" style="points=[[0,0],[0.25,0],[0.5,0],[0.75,0],[1,0],[1,0.25],[1,0.5],[1,0.75],[1,1],[0.75,1],[0.5,1],[0.25,1],[0,1],[0,0.75],[0,0.5],[0,0.25]];outlineConnect=0;gradientColor=none;html=1;whiteSpace=wrap;fontSize=12;fontStyle=0;container=1;pointerEvents=0;collapsible=0;recursiveResize=0;shape=mxgraph.aws4.group;grIcon=mxgraph.aws4.group_ec2_instance_contents;strokeColor=#D86613;fillColor=none;verticalAlign=top;align=left;spacingLeft=30;fontColor=#D86613;dashed=0;" vertex="1" parent="1">
          <mxGeometry x="1280" y="930" width="280" height="200" as="geometry" />
        </mxCell>
        <mxCell id="SAVALBZILOmcg_LePT_4-25" value="Private subnet" style="points=[[0,0],[0.25,0],[0.5,0],[0.75,0],[1,0],[1,0.25],[1,0.5],[1,0.75],[1,1],[0.75,1],[0.5,1],[0.25,1],[0,1],[0,0.75],[0,0.5],[0,0.25]];outlineConnect=0;gradientColor=none;html=1;whiteSpace=wrap;fontSize=12;fontStyle=0;container=1;pointerEvents=0;collapsible=0;recursiveResize=0;shape=mxgraph.aws4.group;grIcon=mxgraph.aws4.group_security_group;grStroke=0;strokeColor=#00A4A6;fillColor=#E6F6F7;verticalAlign=top;align=left;spacingLeft=30;fontColor=#147EBA;dashed=0;" vertex="1" parent="SAVALBZILOmcg_LePT_4-16">
          <mxGeometry x="20" y="55" width="240" height="130" as="geometry" />
        </mxCell>
        <mxCell id="SAVALBZILOmcg_LePT_4-59" value="" style="shape=image;verticalLabelPosition=bottom;labelBackgroundColor=default;verticalAlign=top;imageAspect=0;image=https://static-00.iconduck.com/assets.00/c-sharp-c-icon-1822x2048-wuf3ijab.png;" vertex="1" parent="SAVALBZILOmcg_LePT_4-25">
          <mxGeometry x="187" y="-51" width="30.26" height="34" as="geometry" />
        </mxCell>
        <mxCell id="SAVALBZILOmcg_LePT_4-15" value="" style="outlineConnect=0;dashed=0;verticalLabelPosition=bottom;verticalAlign=top;align=center;html=1;shape=mxgraph.aws3.ec2;fillColor=#F58534;gradientColor=none;" vertex="1" parent="SAVALBZILOmcg_LePT_4-16">
          <mxGeometry x="38.5" y="80" width="76.5" height="93" as="geometry" />
        </mxCell>
        <mxCell id="SAVALBZILOmcg_LePT_4-17" value="" style="outlineConnect=0;dashed=0;verticalLabelPosition=bottom;verticalAlign=top;align=center;html=1;shape=mxgraph.aws3.ec2;fillColor=#F58534;gradientColor=none;" vertex="1" parent="SAVALBZILOmcg_LePT_4-16">
          <mxGeometry x="170" y="80" width="76.5" height="93" as="geometry" />
        </mxCell>
        <mxCell id="SAVALBZILOmcg_LePT_4-58" value="" style="shape=image;verticalLabelPosition=bottom;labelBackgroundColor=default;verticalAlign=top;imageAspect=0;image=data:image/png,iVBORw0KGgoAAAANSUhEUgAAAgAAAAIACAYAAAD0eNT6AAAACXBIWXMAAA7EAAAOxAGVKw4bAAAQqklEQVR4nO3dT2jWV77H8TOXxEKGSoQUJ/4p9EJFEMRFKbMbCHNnN4twme4cZnUp0k1bu5QSuilU042UMkuFLlpC4XbXCUJ3Q3EhMoIo3AGtOqHSp6RMwBqYu+j13vbWqfnzO79/n9drlYWc50SNvnPOL9/nZ4vH/vKPAgAk+epfut4BANA+AQAAgQQAAAQSAAAQSAAAQCABAACBBAAABBIAABBIAABAIAEAAIEEAAAEEgAAEEgAAEAgAQAAgQQAAAQSAAAQSAAAQCABAACBBAAABBIAABBIAABAIAEAAIEEAAAEEgAAEEgAAEAgAQAAgQQAAAQSAAAQSAAAQCABAACBBAAABBIAABBIAABAIAEAAIEEAAAEEgAAEEgAAEAgAQAAgQQAAAQSAAAQSAAAQCABAACBBAAABBIAABBIAABAIAEAAIEEAAAEEgAAEEgAAEAgAQAAgQQAAAQSAAAQSAAAQCABAACBBAAABBIAABBIAABAIAEAAIEEAAAEEgAAEEgAAEAgAQAAgQQAAAQSAAAQSAAAQCABAACBBAAABBIAABBIAABAIAEAAIEEAAAEEgAAEEgAAEAgAQAAgQQAAAQSAAAQSAAAQCABAACBBAAABBIAABBIAABAIAEAAIEEAAAEEgAAEEgAAEAgAQAAgQQAAAQSAAAQSAAAQCABAACBBAAABBIAABBIAABAIAEAAIEEAAAEEgAAEEgAAEAgAQAAgQQAAAQSAAAQSAAAQCABAACBBAAABBIAABBIAABAIAEAAIEEAAAEEgAAEEgAAEAgAQAAgQQAAAQSAAAQSAAAQCABAACBBAAABBIAABBIAABAIAEAAIEEAAAEEgAAEEgAAEAgAQAAgQQAAAQSAAAQSAAAQCABAACBBAAABBIAABBIAABAIAEAAIEEAAAEEgAAEEgAAEAgAQAAgQQAAAQSAAAQSAAAQCABAACBBAAABBIAABBIAABAIAEAAIEEAAAEEgAAEEgAAEAgAQAAgQQAAAQSAAAQSAAAQCABAACBBAAABBIAABBIAABAIAEAAIEEAAAEEgAAEEgAAEAgAQAAgQQAAAQSAAAQSAAAQCABAACBBAAABBIAABBIAABAIAEAAIEEAAAEEgAAEEgAAEAgAQAAgQQAAAQSAAAQSAAAQCABAACBBAAABBIAABBIAABAIAEAAIEEAAAEEgAAEEgAAEAgAQAAgQQAAAQSAAAQSAAAQCABAACBBAAABBIAABBIAABAIAEAAIGmut4A7du7b6q8uPB0KaWUWzcflGeff6rKx6srk/Y+qR46cnymPPv8U43+vt64utHJ5/BIzb8vQ/r480vflPXJ5hN//9r6WvNxf75mhkQABPrF4T3l1NKBVl4rOQJOnztU5uanG1vv/r2H5T/+7UZj623Fb363rywszrb6msNwd0t/t9v8WuPHrl3eKGf+8Neut9FbrgCo5qWXnyl792lMxufWzQddbwF2TQBQzdz8dPn9a/u73gY07vvXIjBUAoCqFhZny5HjM11vAxrlBIAxEABUd/rcoa63AI1yAsAYCACqm5ufLq+8dbDrbUBjnAAwBgKAViwsznogkNFwAsAYCABa88a7h7veAjRiKycAgpe+EwC05tgLM+XX/76v623Arm3lBGArg4KgSwKAVpkNwBh4BoAxEAC0ymwAxsAzAIyBAKB1ZgMwdE4AGAMBQCfMBmDInAAwBgKATpgNwJA5AWAMBACdcRXAUDkBYAwEAJ066YFABsgcAMZAANApswEYInMAGAMBQOdOLR3w3RKD4hkAxsC/uvTC71/bX86fudP1NmjJe2/e7XoLrfjb7W97+bmeWjrQ+JrXLm+Uzz75uvF1qUcA0AsLi7Pl048m5cbVja63QmX37z0sqyuTrrfRivXJZu8+1737psqppebX/eyTr3v3ufLTXAHQG6fPHXIVANASAUBvGBMM0B4BQK+YDQDQDgFA75gNAFCfAKB3zAYAqE8A0EtmAwDUJQDorTfePdz1FgBGSwCwa/fvPSyXPm5+AIirAIB6BAC7Njc/Xc6fuVPu33vY+NovvfyMqwCACgQAjdi7b6p8+P6Xja9rNgBAHQKAxqyuTKqcApgNANA8AUAjfnF4TymlVDkFKMVsAICmCQAa8ej90WudAnggEKBZAoDG1ToFMBsAoDkCgMbVOgUoxWwAgKYIAKqodQrgKgCgGQKAKlZXJuXa5Y0qa5sNALB7AoBq3nn1dpV1zQYA2D0BQCOOnvjxz+mvTzbLe2/erfJ6ZgMA7I4AoBHXrzz+uL/mVcDpc4eqrAuQQADQiMedADxycXmtymvOzU97IBBghwQA1d24ulHl3QJLMRsAYKcEAK2o9W6BpZgNALATAoDWnH39iyrrmg0AsH0CgNbUvAowGwBgewQArbqwvFblKsBsAIDtEQC0an2yWW1MsNkAAFsnAGid2QAA3RMAdKLmmGAPBAI8mQCgEzXHBJ9aOuAqAOAJBACdWV2ZVJsNcNIDgQA/SQDQKbMBALohAOiU2QAA3RAAdK7WmGCzAQD+OQFAL9S6CjAbAODxBAC9UPMqwGwAgB9zQUpvXFheK8d/+fMyNz/d6Lpz89PllbcOlvNn7jS6LjszNz9d/vinI11vY1s+fP/Lsroy6Xob0CgBQG88GhN8aulA42svLM6WTz+alBtX60wgZHuajrzajp6YEQCMjisAeqXmmGCzAdip61eEI+MjAOidWmOCzQZgp46e8CAp4yMA6J3aY4LNBmC7nAAwRgKAXqo5JthsALbLCQBjJADoLbMB6AsnAIyRAKC3as8GcBXAVjkBYIwEAL12YXnNmGA65wSAMRIA9Nqj2QA1uApgq5wAMEYCgN5bXZlUuwowG4CtcALAGAkABuHC8lqVdc0GYCucADBGAoBBMBuALjkBYIwEAINRc0ywBwL5KU4AGCMBwKBcrHQVsLA46yqAf8oJAGMkABiUmrMBXnr5GVcBPJYTAMZIADA458/cMRuAVjkBYIwEAINkTDBtcgLAGDnvZJAeXQUsLM42vvbJ1/aXM3/4a+Pr8n9qPcxZixMAxkgAMFgXltfK8V/+vMzNTze67qPZAKsrk0bX5Tv37z0UWNADrgAYrJpjgs0GAMZOADBoNWcDvPHu4SrrAvSBAGDw3nn1dpV1jQkGxkwAMHg1xwSbDQCMlQBgFGpdBZgNAIyVAGA0ao4JNhsAGBsBwGjUHBN8+tyhKusCdEUAMCo1xwR7IBAYEwHA6NQaE2w2ADAmAoDRqXkVYDYAMBYCgFG6sLxW5SrAbABgLAQAo1RzTLDZAMAYCABGq+vZAGt3mj+BAGiKAGDUao0JNhsAGDoBwKjVHBNsNgAwZAKA0VtdmZgNAPD/CAAimA0A8EMCgAhmAwD8kAAgRq0xwWYDAEMkAIixd99UtauAx80GWLv9bZXXAmiCACDG+mSz2lXAVmcDAPSFACDOheW1KuuaDQAMiQAgTs3ZACe/dwpw/UrzUwgBmiIAiFRrTLAHAoGhEADEuljpKuDRA4G3bj6osj5AEwQAsW5c3ahyFeCBQGAIBADRPr/0TZXZAAuLs42vCdAkAUC09clmtdkA3iwI6DMBQLyaswEA+koAQPluNkCNqwCAvhIAUL67Cvjw/S+73gZAawQA/I9aswEA+kgAwPe88+rtrrcA0AoB0JIjx2fMiR+AmmOCAfpk6sm/hO3au2+qvLjwdDl6YqbsP7ynHHvhh//x37/3sFz989/L9Ssb5dbNB+XGVcfOfbK6Mim/+u3sj/7cAMZEADTsyPGZcvrcoZ/8EbC5+emysDj7v8NiLn38dfn0o4kQ6JGLy2vl7Q+e63obANW4AmjI3n1T5ZW3Dpa3P3hu2z//vbA4W97+4DlvItMjtWYDAPSFAGjAkeMz5eyH/7rr8a+nlg6IgB45f+aO2QDAaLkCaMCTjvy349TSgVLKd/fQdO/s61+4CmjY3Px0+eOfjnS9jcacff0L13cMkgDYpVfeOtj4yNdTSwc8HNgTj64CvLlPs4xJhu65AtiFI8dnqv3HcNLbyfaGMcHAGAmAXaj5bm/HXpjxPEBPGBMMjJEA2KEjx2eqH2MePeHn0PvCmGBgbATADv3md/W/O3fv3C/GBANjIgB2aP/hPa28jvHB/WFMMDAmAmCH9h/0FHOizy994yoAGAUB0HPPPv9U11vge9Ynm+Xi8lrX2wDYNQGwQ2t32vmxsFs3H7TyOmydMcHAGAiAnvvb7W+73gKPYUwwMHQCYIc++6T+d4D37z0s65PN6q/Dzpx9/YuutwCwYwJgh9o4mr/6579Xfw12zlUAMGQCYIfa+Mf/gofNes+YYGCoBMAu1PzH/7037zr+HwBjgoGhEgC7sD7ZrHIPfOnjr70d8IAYEwwMkQDYpaavAu7fe+jof4CMCQaGRgA04PyZO41EwLXLG+X0S//l6H+gjAkGhmSq6w2Mxfkzd8qnH03K6XOHdvQuge+9ebfVY/+mj6yvX8k+Al+fbJbVlUn51W/rvYHTWgczIa5f2WjtfS9ojysrSinlZ4vH/vKPrjcxJnv3TZUXF54up5YObOnXX7u8Ud559bbv+gFo01cCoKJHMVBKKUdPzJT9h/eUtdvflutXNsqtmw/KjasqHIBOCAAACPSVhwABIJAAAIBAAgAAAgkAAAgkAAAgkAAAgEACAAACCQAACCQAACCQAACAQAIAAAIJAAAIJAAAIJAAAIBAAgAAAgkAAAgkAAAgkAAAgEACAAACCQAACCQAACCQAACAQAIAAAIJAAAIJAAAIJAAAIBAAgAAAgkAAAgkAAAgkAAAgEACAAACCQAACCQAACCQAACAQAIAAAIJAAAIJAAAIJAAAIBAAgAAAgkAAAgkAAAgkAAAgEACAAACCQAACCQAACCQAACAQAIAAAIJAAAIJAAAIJAAAIBAAgAAAgkAAAgkAAAgkAAAgEACAAACCQAACCQAACCQAACAQAIAAAIJAAAIJAAAIJAAAIBAAgAAAgkAAAgkAAAgkAAAgEACAAACCQAACCQAACCQAACAQAIAAAIJAAAIJAAAIJAAAIBAAgAAAgkAAAgkAAAgkAAAgEACAAACCQAACCQAACCQAACAQAIAAAIJAAAIJAAAIJAAAIBAAgAAAgkAAAgkAAAgkAAAgEACAAACCQAACCQAACCQAACAQAIAAAIJAAAIJAAAIJAAAIBAAgAAAgkAAAgkAAAgkAAAgEACAAACCQAACCQAACCQAACAQAIAAAIJAAAIJAAAIJAAAIBAAgAAAgkAAAgkAAAgkAAAgEACAAACCQAACCQAACCQAACAQAIAAAIJAAAIJAAAIJAAAIBAAgAAAgkAAAgkAAAgkAAAgEACAAACCQAACCQAACCQAACAQAIAAAIJAAAIJAAAIJAAAIBAAgAAAgkAAAgkAAAgkAAAgEACAAACCQAACCQAACCQAACAQAIAAAIJAAAIJAAAIJAAAIBAAgAAAgkAAAgkAAAgkAAAgEACAAACCQAACCQAACCQAACAQAIAAAIJAAAIJAAAIJAAAIBAAgAAAgkAAAgkAAAgkAAAgEACAAACCQAACCQAACCQAACAQAIAAAIJAAAIJAAAIJAAAIBAAgAAAgkAAAgkAAAgkAAAgEACAAACCQAACCQAACCQAACAQAIAAAIJAAAIJAAAIJAAAIBAAgAAAk2VUv6z600AAO36bz9VXPhQuoBJAAAAAElFTkSuQmCC;aspect=fixed;" vertex="1" parent="SAVALBZILOmcg_LePT_4-16">
          <mxGeometry x="239" y="1" width="40" height="40" as="geometry" />
        </mxCell>
        <mxCell id="SAVALBZILOmcg_LePT_4-21" value="WEBSOCKET SERVER" style="points=[[0,0],[0.25,0],[0.5,0],[0.75,0],[1,0],[1,0.25],[1,0.5],[1,0.75],[1,1],[0.75,1],[0.5,1],[0.25,1],[0,1],[0,0.75],[0,0.5],[0,0.25]];outlineConnect=0;gradientColor=none;html=1;whiteSpace=wrap;fontSize=12;fontStyle=0;container=1;pointerEvents=0;collapsible=0;recursiveResize=0;shape=mxgraph.aws4.group;grIcon=mxgraph.aws4.group_ec2_instance_contents;strokeColor=#D86613;fillColor=none;verticalAlign=top;align=left;spacingLeft=30;fontColor=#D86613;dashed=0;" vertex="1" parent="1">
          <mxGeometry x="1620" y="930" width="280" height="200" as="geometry" />
        </mxCell>
        <mxCell id="SAVALBZILOmcg_LePT_4-26" value="Private subnet" style="points=[[0,0],[0.25,0],[0.5,0],[0.75,0],[1,0],[1,0.25],[1,0.5],[1,0.75],[1,1],[0.75,1],[0.5,1],[0.25,1],[0,1],[0,0.75],[0,0.5],[0,0.25]];outlineConnect=0;gradientColor=none;html=1;whiteSpace=wrap;fontSize=12;fontStyle=0;container=1;pointerEvents=0;collapsible=0;recursiveResize=0;shape=mxgraph.aws4.group;grIcon=mxgraph.aws4.group_security_group;grStroke=0;strokeColor=#00A4A6;fillColor=#E6F6F7;verticalAlign=top;align=left;spacingLeft=30;fontColor=#147EBA;dashed=0;" vertex="1" parent="SAVALBZILOmcg_LePT_4-21">
          <mxGeometry x="20" y="35" width="240" height="130" as="geometry" />
        </mxCell>
        <mxCell id="SAVALBZILOmcg_LePT_4-22" value="" style="outlineConnect=0;dashed=0;verticalLabelPosition=bottom;verticalAlign=top;align=center;html=1;shape=mxgraph.aws3.ec2;fillColor=#F58534;gradientColor=none;" vertex="1" parent="SAVALBZILOmcg_LePT_4-21">
          <mxGeometry x="38.5" y="60" width="76.5" height="93" as="geometry" />
        </mxCell>
        <mxCell id="SAVALBZILOmcg_LePT_4-23" value="" style="outlineConnect=0;dashed=0;verticalLabelPosition=bottom;verticalAlign=top;align=center;html=1;shape=mxgraph.aws3.ec2;fillColor=#F58534;gradientColor=none;" vertex="1" parent="SAVALBZILOmcg_LePT_4-21">
          <mxGeometry x="170" y="60" width="76.5" height="93" as="geometry" />
        </mxCell>
        <mxCell id="SAVALBZILOmcg_LePT_4-33" value="" style="group" vertex="1" connectable="0" parent="1">
          <mxGeometry x="1367" y="1200" width="100" height="94.5" as="geometry" />
        </mxCell>
        <mxCell id="SAVALBZILOmcg_LePT_4-29" value="" style="sketch=0;outlineConnect=0;fontColor=#232F3E;gradientColor=none;fillColor=#C925D1;strokeColor=none;dashed=0;verticalLabelPosition=bottom;verticalAlign=top;align=center;html=1;fontSize=12;fontStyle=0;aspect=fixed;pointerEvents=1;shape=mxgraph.aws4.rds_instance_alt;" vertex="1" parent="SAVALBZILOmcg_LePT_4-33">
          <mxGeometry width="80" height="80" as="geometry" />
        </mxCell>
        <mxCell id="SAVALBZILOmcg_LePT_4-68" value="MySQL" style="shape=rect;fillColor=#0F62FE;aspect=fixed;resizable=0;labelPosition=center;verticalLabelPosition=bottom;align=center;verticalAlign=top;strokeColor=none;fontSize=14;" vertex="1" parent="SAVALBZILOmcg_LePT_4-33">
          <mxGeometry x="52" y="44" width="48" height="48" as="geometry" />
        </mxCell>
        <mxCell id="SAVALBZILOmcg_LePT_4-69" value="" style="fillColor=#ffffff;strokeColor=none;dashed=0;outlineConnect=0;html=1;labelPosition=center;verticalLabelPosition=bottom;verticalAlign=top;part=1;movable=0;resizable=0;rotatable=0;shape=mxgraph.ibm_cloud.database--mysql" vertex="1" parent="SAVALBZILOmcg_LePT_4-68">
          <mxGeometry width="24" height="24" relative="1" as="geometry">
            <mxPoint x="12" y="12" as="offset" />
          </mxGeometry>
        </mxCell>
        <mxCell id="SAVALBZILOmcg_LePT_4-36" value="" style="group" vertex="1" connectable="0" parent="1">
          <mxGeometry x="349" y="1382" width="78" height="108" as="geometry" />
        </mxCell>
        <mxCell id="SAVALBZILOmcg_LePT_4-34" value="" style="sketch=0;outlineConnect=0;fontColor=#232F3E;gradientColor=none;fillColor=#232F3D;strokeColor=none;dashed=0;verticalLabelPosition=bottom;verticalAlign=top;align=center;html=1;fontSize=12;fontStyle=0;aspect=fixed;pointerEvents=1;shape=mxgraph.aws4.user;" vertex="1" parent="SAVALBZILOmcg_LePT_4-36">
          <mxGeometry width="78" height="78" as="geometry" />
        </mxCell>
        <mxCell id="SAVALBZILOmcg_LePT_4-35" value="DEV" style="text;html=1;align=center;verticalAlign=middle;whiteSpace=wrap;rounded=0;" vertex="1" parent="SAVALBZILOmcg_LePT_4-36">
          <mxGeometry x="9" y="78" width="60" height="30" as="geometry" />
        </mxCell>
        <mxCell id="SAVALBZILOmcg_LePT_4-37" value="AWS Account" style="points=[[0,0],[0.25,0],[0.5,0],[0.75,0],[1,0],[1,0.25],[1,0.5],[1,0.75],[1,1],[0.75,1],[0.5,1],[0.25,1],[0,1],[0,0.75],[0,0.5],[0,0.25]];outlineConnect=0;gradientColor=none;html=1;whiteSpace=wrap;fontSize=12;fontStyle=0;container=1;pointerEvents=0;collapsible=0;recursiveResize=0;shape=mxgraph.aws4.group;grIcon=mxgraph.aws4.group_account;strokeColor=#CD2264;fillColor=none;verticalAlign=top;align=left;spacingLeft=30;fontColor=#CD2264;dashed=0;" vertex="1" parent="1">
          <mxGeometry x="300" y="862" width="570" height="360" as="geometry" />
        </mxCell>
        <mxCell id="SAVALBZILOmcg_LePT_4-48" value="" style="rounded=0;whiteSpace=wrap;html=1;fillColor=none;" vertex="1" parent="SAVALBZILOmcg_LePT_4-37">
          <mxGeometry x="18.5" y="100" width="440" height="230" as="geometry" />
        </mxCell>
        <mxCell id="SAVALBZILOmcg_LePT_4-43" value="" style="sketch=0;points=[[0,0,0],[0.25,0,0],[0.5,0,0],[0.75,0,0],[1,0,0],[0,1,0],[0.25,1,0],[0.5,1,0],[0.75,1,0],[1,1,0],[0,0.25,0],[0,0.5,0],[0,0.75,0],[1,0.25,0],[1,0.5,0],[1,0.75,0]];outlineConnect=0;fontColor=#232F3E;fillColor=#C925D1;strokeColor=#ffffff;dashed=0;verticalLabelPosition=bottom;verticalAlign=top;align=center;html=1;fontSize=12;fontStyle=0;aspect=fixed;shape=mxgraph.aws4.resourceIcon;resIcon=mxgraph.aws4.codepipeline;" vertex="1" parent="SAVALBZILOmcg_LePT_4-37">
          <mxGeometry x="201" y="250" width="75" height="75" as="geometry" />
        </mxCell>
        <mxCell id="SAVALBZILOmcg_LePT_4-49" style="edgeStyle=orthogonalEdgeStyle;rounded=0;orthogonalLoop=1;jettySize=auto;html=1;exitX=1;exitY=0.5;exitDx=0;exitDy=0;exitPerimeter=0;" edge="1" parent="SAVALBZILOmcg_LePT_4-37" source="SAVALBZILOmcg_LePT_4-44" target="SAVALBZILOmcg_LePT_4-45">
          <mxGeometry relative="1" as="geometry" />
        </mxCell>
        <mxCell id="SAVALBZILOmcg_LePT_4-44" value="" style="sketch=0;points=[[0,0,0],[0.25,0,0],[0.5,0,0],[0.75,0,0],[1,0,0],[0,1,0],[0.25,1,0],[0.5,1,0],[0.75,1,0],[1,1,0],[0,0.25,0],[0,0.5,0],[0,0.75,0],[1,0.25,0],[1,0.5,0],[1,0.75,0]];outlineConnect=0;fontColor=#232F3E;fillColor=#C925D1;strokeColor=#ffffff;dashed=0;verticalLabelPosition=bottom;verticalAlign=top;align=center;html=1;fontSize=12;fontStyle=0;aspect=fixed;shape=mxgraph.aws4.resourceIcon;resIcon=mxgraph.aws4.codecommit;" vertex="1" parent="SAVALBZILOmcg_LePT_4-37">
          <mxGeometry x="50" y="130" width="75" height="75" as="geometry" />
        </mxCell>
        <mxCell id="SAVALBZILOmcg_LePT_4-50" style="edgeStyle=orthogonalEdgeStyle;rounded=0;orthogonalLoop=1;jettySize=auto;html=1;exitX=1;exitY=0.5;exitDx=0;exitDy=0;exitPerimeter=0;" edge="1" parent="SAVALBZILOmcg_LePT_4-37" source="SAVALBZILOmcg_LePT_4-45" target="SAVALBZILOmcg_LePT_4-46">
          <mxGeometry relative="1" as="geometry" />
        </mxCell>
        <mxCell id="SAVALBZILOmcg_LePT_4-45" value="" style="sketch=0;points=[[0,0,0],[0.25,0,0],[0.5,0,0],[0.75,0,0],[1,0,0],[0,1,0],[0.25,1,0],[0.5,1,0],[0.75,1,0],[1,1,0],[0,0.25,0],[0,0.5,0],[0,0.75,0],[1,0.25,0],[1,0.5,0],[1,0.75,0]];outlineConnect=0;fontColor=#232F3E;fillColor=#C925D1;strokeColor=#ffffff;dashed=0;verticalLabelPosition=bottom;verticalAlign=top;align=center;html=1;fontSize=12;fontStyle=0;aspect=fixed;shape=mxgraph.aws4.resourceIcon;resIcon=mxgraph.aws4.codebuild;" vertex="1" parent="SAVALBZILOmcg_LePT_4-37">
          <mxGeometry x="201" y="130" width="75" height="75" as="geometry" />
        </mxCell>
        <mxCell id="SAVALBZILOmcg_LePT_4-46" value="" style="sketch=0;points=[[0,0,0],[0.25,0,0],[0.5,0,0],[0.75,0,0],[1,0,0],[0,1,0],[0.25,1,0],[0.5,1,0],[0.75,1,0],[1,1,0],[0,0.25,0],[0,0.5,0],[0,0.75,0],[1,0.25,0],[1,0.5,0],[1,0.75,0]];outlineConnect=0;fontColor=#232F3E;fillColor=#C925D1;strokeColor=#ffffff;dashed=0;verticalLabelPosition=bottom;verticalAlign=top;align=center;html=1;fontSize=12;fontStyle=0;aspect=fixed;shape=mxgraph.aws4.resourceIcon;resIcon=mxgraph.aws4.codedeploy;" vertex="1" parent="SAVALBZILOmcg_LePT_4-37">
          <mxGeometry x="340" y="130" width="75" height="75" as="geometry" />
        </mxCell>
        <mxCell id="SAVALBZILOmcg_LePT_4-52" style="edgeStyle=orthogonalEdgeStyle;rounded=0;orthogonalLoop=1;jettySize=auto;html=1;exitX=1;exitY=0.5;exitDx=0;exitDy=0;exitPerimeter=0;" edge="1" parent="SAVALBZILOmcg_LePT_4-37" source="SAVALBZILOmcg_LePT_4-47">
          <mxGeometry relative="1" as="geometry">
            <mxPoint x="310" y="170" as="targetPoint" />
          </mxGeometry>
        </mxCell>
        <mxCell id="SAVALBZILOmcg_LePT_4-47" value="" style="sketch=0;points=[[0,0,0],[0.25,0,0],[0.5,0,0],[0.75,0,0],[1,0,0],[0,1,0],[0.25,1,0],[0.5,1,0],[0.75,1,0],[1,1,0],[0,0.25,0],[0,0.5,0],[0,0.75,0],[1,0.25,0],[1,0.5,0],[1,0.75,0]];outlineConnect=0;fontColor=#232F3E;fillColor=#7AA116;strokeColor=#ffffff;dashed=0;verticalLabelPosition=bottom;verticalAlign=top;align=center;html=1;fontSize=12;fontStyle=0;aspect=fixed;shape=mxgraph.aws4.resourceIcon;resIcon=mxgraph.aws4.s3;" vertex="1" parent="SAVALBZILOmcg_LePT_4-37">
          <mxGeometry x="201" y="10" width="75" height="75" as="geometry" />
        </mxCell>
        <mxCell id="SAVALBZILOmcg_LePT_4-51" style="edgeStyle=orthogonalEdgeStyle;rounded=0;orthogonalLoop=1;jettySize=auto;html=1;exitX=1;exitY=0.5;exitDx=0;exitDy=0;exitPerimeter=0;entryX=0;entryY=0.5;entryDx=0;entryDy=0;entryPerimeter=0;" edge="1" parent="SAVALBZILOmcg_LePT_4-37" source="SAVALBZILOmcg_LePT_4-44" target="SAVALBZILOmcg_LePT_4-47">
          <mxGeometry relative="1" as="geometry" />
        </mxCell>
        <mxCell id="SAVALBZILOmcg_LePT_4-42" style="edgeStyle=orthogonalEdgeStyle;rounded=0;orthogonalLoop=1;jettySize=auto;html=1;exitX=0.5;exitY=0;exitDx=0;exitDy=0;exitPerimeter=0;" edge="1" parent="1" source="SAVALBZILOmcg_LePT_4-38" target="SAVALBZILOmcg_LePT_4-44">
          <mxGeometry relative="1" as="geometry">
            <mxPoint x="349" y="1222" as="targetPoint" />
          </mxGeometry>
        </mxCell>
        <mxCell id="SAVALBZILOmcg_LePT_4-38" value="" style="verticalLabelPosition=bottom;html=1;verticalAlign=top;align=center;strokeColor=none;fillColor=#00BEF2;shape=mxgraph.azure.git_repository;" vertex="1" parent="1">
          <mxGeometry x="363" y="1292" width="50" height="50" as="geometry" />
        </mxCell>
        <mxCell id="SAVALBZILOmcg_LePT_4-39" value="" style="edgeStyle=orthogonalEdgeStyle;rounded=0;orthogonalLoop=1;jettySize=auto;html=1;" edge="1" parent="1" source="SAVALBZILOmcg_LePT_4-34" target="SAVALBZILOmcg_LePT_4-38">
          <mxGeometry relative="1" as="geometry" />
        </mxCell>
        <mxCell id="SAVALBZILOmcg_LePT_4-41" value="PUSH" style="text;html=1;align=center;verticalAlign=middle;whiteSpace=wrap;rounded=0;" vertex="1" parent="1">
          <mxGeometry x="389" y="1352" width="60" height="30" as="geometry" />
        </mxCell>
        <mxCell id="SAVALBZILOmcg_LePT_4-53" style="edgeStyle=orthogonalEdgeStyle;rounded=0;orthogonalLoop=1;jettySize=auto;html=1;exitX=1;exitY=0.5;exitDx=0;exitDy=0;exitPerimeter=0;" edge="1" parent="1" source="SAVALBZILOmcg_LePT_4-46" target="SAVALBZILOmcg_LePT_4-66">
          <mxGeometry relative="1" as="geometry" />
        </mxCell>
        <mxCell id="SAVALBZILOmcg_LePT_4-61" style="edgeStyle=orthogonalEdgeStyle;rounded=0;orthogonalLoop=1;jettySize=auto;html=1;exitX=1;exitY=0.5;exitDx=0;exitDy=0;exitPerimeter=0;" edge="1" parent="1" source="SAVALBZILOmcg_LePT_4-60">
          <mxGeometry relative="1" as="geometry">
            <mxPoint x="1420" y="848.5" as="targetPoint" />
          </mxGeometry>
        </mxCell>
        <mxCell id="SAVALBZILOmcg_LePT_4-60" value="" style="sketch=0;points=[[0,0,0],[0.25,0,0],[0.5,0,0],[0.75,0,0],[1,0,0],[0,1,0],[0.25,1,0],[0.5,1,0],[0.75,1,0],[1,1,0],[0,0.25,0],[0,0.5,0],[0,0.75,0],[1,0.25,0],[1,0.5,0],[1,0.75,0]];outlineConnect=0;fontColor=#232F3E;fillColor=#DD344C;strokeColor=#ffffff;dashed=0;verticalLabelPosition=bottom;verticalAlign=top;align=center;html=1;fontSize=12;fontStyle=0;aspect=fixed;shape=mxgraph.aws4.resourceIcon;resIcon=mxgraph.aws4.cognito;" vertex="1" parent="1">
          <mxGeometry x="1280" y="810" width="78" height="78" as="geometry" />
        </mxCell>
        <mxCell id="SAVALBZILOmcg_LePT_4-62" value="/" style="text;html=1;align=center;verticalAlign=middle;whiteSpace=wrap;rounded=0;" vertex="1" parent="1">
          <mxGeometry x="1110" y="750" width="20" height="30" as="geometry" />
        </mxCell>
        <mxCell id="SAVALBZILOmcg_LePT_4-63" value="/api" style="text;html=1;align=center;verticalAlign=middle;whiteSpace=wrap;rounded=0;" vertex="1" parent="1">
          <mxGeometry x="1430" y="750" width="30" height="30" as="geometry" />
        </mxCell>
        <mxCell id="SAVALBZILOmcg_LePT_4-64" value="/ws" style="text;html=1;align=center;verticalAlign=middle;whiteSpace=wrap;rounded=0;" vertex="1" parent="1">
          <mxGeometry x="1770" y="750" width="30" height="30" as="geometry" />
        </mxCell>
        <mxCell id="SAVALBZILOmcg_LePT_4-66" value="Public subnet" style="points=[[0,0],[0.25,0],[0.5,0],[0.75,0],[1,0],[1,0.25],[1,0.5],[1,0.75],[1,1],[0.75,1],[0.5,1],[0.25,1],[0,1],[0,0.75],[0,0.5],[0,0.25]];outlineConnect=0;gradientColor=none;html=1;whiteSpace=wrap;fontSize=12;fontStyle=0;container=1;pointerEvents=0;collapsible=0;recursiveResize=0;shape=mxgraph.aws4.group;grIcon=mxgraph.aws4.group_security_group;grStroke=0;strokeColor=#7AA116;fillColor=#F2F6E8;verticalAlign=top;align=left;spacingLeft=30;fontColor=#248814;dashed=0;" vertex="1" parent="1">
          <mxGeometry x="960" y="925" width="280" height="210" as="geometry" />
        </mxCell>
        <mxCell id="SAVALBZILOmcg_LePT_4-9" value="Auto Scaling group&lt;br&gt;WEB" style="points=[[0,0],[0.25,0],[0.5,0],[0.75,0],[1,0],[1,0.25],[1,0.5],[1,0.75],[1,1],[0.75,1],[0.5,1],[0.25,1],[0,1],[0,0.75],[0,0.5],[0,0.25]];outlineConnect=0;gradientColor=none;html=1;whiteSpace=wrap;fontSize=12;fontStyle=0;container=1;pointerEvents=0;collapsible=0;recursiveResize=0;shape=mxgraph.aws4.groupCenter;grIcon=mxgraph.aws4.group_auto_scaling_group;grStroke=1;strokeColor=#D86613;fillColor=none;verticalAlign=top;align=center;fontColor=#D86613;dashed=1;spacingTop=25;" vertex="1" parent="SAVALBZILOmcg_LePT_4-66">
          <mxGeometry x="14" y="29" width="252" height="174" as="geometry" />
        </mxCell>
        <mxCell id="SAVALBZILOmcg_LePT_4-11" value="" style="outlineConnect=0;dashed=0;verticalLabelPosition=bottom;verticalAlign=top;align=center;html=1;shape=mxgraph.aws3.ec2;fillColor=#F58534;gradientColor=none;" vertex="1" parent="SAVALBZILOmcg_LePT_4-9">
          <mxGeometry x="17.75" y="65" width="76.5" height="93" as="geometry" />
        </mxCell>
        <mxCell id="SAVALBZILOmcg_LePT_4-12" value="" style="outlineConnect=0;dashed=0;verticalLabelPosition=bottom;verticalAlign=top;align=center;html=1;shape=mxgraph.aws3.ec2;fillColor=#F58534;gradientColor=none;" vertex="1" parent="SAVALBZILOmcg_LePT_4-9">
          <mxGeometry x="157.75" y="65" width="76.5" height="93" as="geometry" />
        </mxCell>
        <mxCell id="SAVALBZILOmcg_LePT_4-54" value="" style="points=[];aspect=fixed;html=1;align=center;shadow=0;dashed=0;fillColor=#FF6A00;strokeColor=none;shape=mxgraph.alibaba_cloud.nodejs_performance_platform;" vertex="1" parent="SAVALBZILOmcg_LePT_4-9">
          <mxGeometry width="42" height="47.400000000000006" as="geometry" />
        </mxCell>
      </root>
    </mxGraphModel>
  </diagram>
</mxfile>
